 http://img195.imageshack.us/img195/2305/redstate.jpg


Verenigde Staten
Horror / Thriller
98 minuten

geregisseerd door Kevin Smith
met Michael Angarano, John Goodman en Michael Parks

Drie geile scholieren stuiten op een online advertentie van een oudere vrouw die op zoek is naar een gangbang. Jongens blijven jongens, en aldus gaan ze op weg om hun seksuele driften te bevredigen. Wat echter begint als een sprookje eindigt in een ware nachtmerrie als ze tegenover een verschrikkelijke "heilige" kracht, de extremistische predikant Abin Cooper, komen te staan die er zo z'n eigen dodelijke agenda op nahoudt.


Vertaald door Simply ReleaseS Toppers
Jack The Ripper, Depositair, Markow87 en Suurtje




Screenshots:
 
http://img827.imageshack.us/img827/7895/screenshot1ni.jpg
 
http://img840.imageshack.us/img840/6605/screenshot2qv.jpg
 
http://img843.imageshack.us/img843/5836/screenshot3zv.jpg
 
http://img9.imageshack.us/img9/6466/screenshot4tn.jpg



INFO;


Video
ID                                       : 0
Format                                   : MPEG-4 Visual
Format profile                           : Advanced Simple@L5
Format settings, BVOP                    : 1
Format settings, QPel                    : No
Format settings, GMC                     : No warppoints
Format settings, Matrix                  : Custom
Codec ID                                 : XVID
Codec ID/Hint                            : XviD
Duration                                 : 1h 28mn
Bit rate                                 : 985 Kbps
Width                                    : 640 pixels
Height                                   : 352 pixels
Display aspect ratio                     : 16:9
Frame rate                               : 23.976 fps
Color space                              : YUV
Chroma subsampling                       : 4:2:0
Bit depth                                : 8 bits
Scan type                                : Progressive
Compression mode                         : Lossy
Bits/(Pixel*Frame)                       : 0.182
Stream size                              : 624 MiB (89%)
Writing library                          : XviD 64

Audio
ID                                       : 1
Format                                   : MPEG Audio
Format version                           : Version 1
Format profile                           : Layer 3
Mode                                     : Joint stereo
Mode extension                           : MS Stereo
Codec ID                                 : 55
Codec ID/Hint                            : MP3
Duration                                 : 1h 28mn
Bit rate mode                            : Variable
Bit rate                                 : 108 Kbps
Nominal bit rate                         : 128 Kbps
Channel(s)                               : 2 channels
Sampling rate                            : 48.0 KHz
Compression mode                         : Lossy
Stream size                              : 68.5 MiB (10%)
Alignment                                : Aligned on interleaves
Interleave, duration                     : 24 ms (0.58 video frame)
Interleave, preload duration             : 170 ms
Writing library                          : LAME3.98r



 
http://www.imdb.com/title/tt0873886/ 
http://www.moviemeter.nl/film/72512



Deze film wordt u aangeboden door het DutchReleaseTeam.
Voor de reviews van de nieuwste films, muziek, series, games etc
ga dan eens naar http://www.hetmultimediacafe.be

DutchReleaseteam = Hardcoded Dutch Subs